<svg version="1.0" xmlns="http://www.w3.org/2000/svg"
          width="640.000000pt" height="640.000000pt" viewBox="0 0 640.000000 640.000000"
          preserveAspectRatio="xMidYMid meet">

          <metadata>
          Contact Michael Chin
          </metadata>

          <g id="hexagon" transform="translate(0.000000,0.000000) scale(1.000000,1.000000)"
            fill="white" stroke="none">
            
            <path d="m 616.05789,320.38773 -148.22281,256.72943 -296.44561,0 L 23.166656,320.38773 171.38947,63.65829 l 296.44561,0 148.22281,256.72944 z"/>
          </g>

          <g id="hexagon-with-teeth" transform="translate(0.000000,0.000000) scale(1.00000,1.000000)"
            fill="#e91e00" stroke="none">
            
            <path d="M 171.375,55.71875 164.5,59.6875 16.28125,316.40625 l 0,7.96875 148.21875,256.71875 6.875,3.96875 296.46875,0 6.875,-3.96875 148.21875,-256.71875 0,-7.96875 -148.21875,-256.71875 -6.875,-3.96875 -296.46875,0 z m 4.625,15.875 287.21875,0 24.32099,44.53269 -16.6912,44.53268 47.30196,5.99537 4.73587,9.53841 -16.12377,45.24731 45.5342,4.22761 4.73588,8.12421 -19.30576,46.30797 47.65552,5.64181 21.49256,34.63319 -143.625,248.78125 -287.28125,0 L 32.375,320.375 176,71.59375 z"/>
            
          </g>

          <g id="big-g" fill="#e91e63" stroke="none" transform="translate(-340, -1890) scale(19.25)">
              <path d="m 34.374428,124.35519 q -1.919113,0 -3.578582,-0.73377 -1.659468,-0.73378 -2.901247,-2.04329 -1.241779,-1.32081 -1.941691,-3.08187 -0.699912,-1.76107 -0.699912,-3.81565 0,-1.96427 0.654757,-3.70276 0.654756,-1.74978 1.885246,-3.08187 1.23049,-1.34338 2.968981,-2.09974 1.73849,-0.76764 3.89467,-0.76764 1.219202,0 2.449692,0.27093 1.241779,0.27093 2.381958,0.80151 1.140179,0.51929 2.05458,1.27565 l -1.715913,2.83351 q -0.982135,-0.9144 -2.381958,-1.41111 -1.388535,-0.508 -2.743203,-0.508 -1.33209,0 -2.35938,0.47413 -1.016001,0.46285 -1.715913,1.30952 -0.699912,0.84666 -1.061157,1.98684 -0.361245,1.12889 -0.361245,2.46098 0,1.45627 0.406401,2.64161 0.4064,1.18533 1.12889,2.04329 0.733778,0.85795 1.704624,1.3208 0.982134,0.46284 2.111024,0.46284 0.903112,0 1.738491,-0.29351 0.846667,-0.3048 1.501424,-0.84667 0.654756,-0.54186 1.038578,-1.27564 0.383823,-0.73378 0.383823,-1.60303 v -0.28222 h -4.888094 v -2.83351 h 8.613431 v 2.82222 q 0,1.70463 -0.7112,3.11574 -0.699912,1.39982 -1.919114,2.42711 -1.219201,1.016 -2.754491,1.58045 -1.535291,0.55315 -3.18347,0.55315 z"
            />
          </g> 

          <g id="old-g" fill="#e91e63" stroke="none" transform="translate(-2710,-410) scale(3.5)" display="none">
            <path d="m 878.70837,218.63899 0,7.056 2.25963,0.72 2.304,2.016 0,21.66701 c -3.744,0.288 -6.48,0.432 -7.92,0.432 -22.17598,0 -35.712,-15.12003 -35.712,-41.04 0,-25.19997 13.24802,-40.176 34.704,-40.176 4.176,0 7.77938,1.54011 11.66738,3.12411 l 6.57165,5.38035 0.88595,13.45977 7.38115,0 0.85387,-26.28423 c -10.65599,-3.168 -20.88001,-4.752 -30.384,-4.752 -31.96797,0 -52.56,19.72803 -52.56,49.248 0,29.95197 20.44803,50.688 50.688,50.688 10.51199,0 22.59112,-2.50806 33.67911,-6.39606 l 0,-25.84301 0.88089,-1.52394 4.50959,-0.72 0,-7.056 -29.80922,0"/>
          </g>

        </svg>